<svg width="22" height="22" viewBox="0 0 22 22" fill="none" xmlns="http://www.w3.org/2000/svg">
<path d="M16.8337 5.16633C17.5998 5.93242 18.2075 6.8419 18.6221 7.84284C19.0368 8.84378 19.2501 9.91659 19.2501 11C19.2501 12.0834 19.0368 13.1562 18.6221 14.1572C18.2075 15.1581 17.5998 16.0676 16.8337 16.8337M16.8337 16.8337L14.2405 14.2404M16.8337 16.8337L19.2501 19.25M14.2414 7.75867C14.6671 8.18428 15.0049 8.6896 15.2353 9.24575C15.4657 9.80191 15.5843 10.398 15.5843 11C15.5843 11.602 15.4657 12.1981 15.2353 12.7542C15.0049 13.3104 14.6671 13.8157 14.2414 14.2413L11.6482 11.6481M11.6482 11.6481C11.7357 11.5635 11.8055 11.4624 11.8536 11.3505C11.9016 11.2387 11.9269 11.1184 11.928 10.9967C11.929 10.875 11.9058 10.7543 11.8597 10.6416C11.8137 10.529 11.7456 10.4266 11.6595 10.3406C11.5735 10.2545 11.4711 10.1864 11.3584 10.1403C11.2458 10.0942 11.1251 10.071 11.0034 10.0721C10.8817 10.0732 10.7614 10.0984 10.6495 10.1465C10.5377 10.1945 10.4366 10.2644 10.352 10.3519M11.6482 11.6481L10.352 10.3519M7.75874 14.2413C7.0561 13.5406 6.60105 12.6298 6.46257 11.6472M5.16641 16.8337C4.07944 15.7473 3.31753 14.3788 2.96656 12.8826C2.61559 11.3864 2.68951 9.82194 3.17999 8.3655M10.352 10.3519L2.75007 2.75" stroke="#006AFF" stroke-width="2" stroke-linecap="round" stroke-linejoin="round"/>
</svg>
