<svg width="22" height="22" viewBox="0 0 22 22" fill="none" xmlns="http://www.w3.org/2000/svg">
<path d="M13.5926 9.00939C14.2803 8.32176 14.6666 7.38913 14.6666 6.41667C14.6666 5.44421 14.2803 4.51157 13.5926 3.82394C12.905 3.13631 11.9724 2.75 10.9999 2.75C10.0275 2.75 9.09483 3.13631 8.40719 3.82394C7.71956 4.51157 7.33325 5.44421 7.33325 6.41667C7.33325 7.38913 7.71956 8.32176 8.40719 9.00939C9.09483 9.69703 10.0275 10.0833 10.9999 10.0833C11.9724 10.0833 12.905 9.69703 13.5926 9.00939Z" stroke="#006AFF" stroke-width="2" stroke-linecap="round" stroke-linejoin="round"/>
<path d="M6.46265 14.7127C7.66601 13.5094 9.29811 12.8333 10.9999 12.8333C12.7017 12.8333 14.3338 13.5094 15.5372 14.7127C16.7405 15.9161 17.4166 17.5482 17.4166 19.25H4.58325C4.58325 17.5482 5.25929 15.9161 6.46265 14.7127Z" stroke="#006AFF" stroke-width="2" stroke-linecap="round" stroke-linejoin="round"/>
</svg>
